<?xml version="1.0" standalone="no"?>
<!DOCTYPE svg PUBLIC "-//W3C//DTD SVG 20010904//EN"
 "http://www.w3.org/TR/2001/REC-SVG-20010904/DTD/svg10.dtd">
<svg version="1.0" xmlns="http://www.w3.org/2000/svg"
 width="282.000000pt" height="282.000000pt" viewBox="0 0 282.000000 282.000000"
 preserveAspectRatio="xMidYMid meet">
<metadata>
Created by potrace 1.11, written by Peter Selinger 2001-2013
</metadata>
<g transform="translate(0.000000,282.000000) scale(0.100000,-0.100000)"
fill="#000000" stroke="none">
<path d="M1128 2753 c7 -3 16 -2 19 1 4 3 -2 6 -13 5 -11 0 -14 -3 -6 -6z"/>
<path d="M1050 2740 c0 -5 6 -10 14 -10 8 0 18 5 21 10 3 6 -3 10 -14 10 -12
0 -21 -4 -21 -10z"/>
<path d="M1182 2728 c6 -18 28 -21 28 -4 0 9 -7 16 -16 16 -9 0 -14 -5 -12
-12z"/>
<path d="M1250 2730 c0 -5 7 -10 15 -10 8 0 15 5 15 10 0 6 -7 10 -15 10 -8 0
-15 -4 -15 -10z"/>
<path d="M1485 2620 c-3 -5 3 -10 15 -10 12 0 18 5 15 10 -3 6 -10 10 -15 10
-5 0 -12 -4 -15 -10z"/>
<path d="M1630 2580 c19 -13 30 -13 30 0 0 6 -10 10 -22 10 -19 0 -20 -2 -8
-10z"/>
<path d="M1620 2501 c0 -5 7 -12 16 -15 38 -14 3 -15 -70 -1 -92 18 -99 18
-91 5 3 -5 15 -10 26 -10 10 0 19 -4 19 -9 0 -5 10 -11 23 -15 18 -5 20 -8 7
-16 -20 -13 -120 -13 -120 0 0 6 10 10 23 11 21 0 21 1 2 9 -33 14 -58 12 -52
-5 8 -19 -8 -28 -47 -28 -26 1 -28 0 -11 -7 11 -5 16 -9 11 -9 -5 -1 -1 -10 9
-21 18 -19 17 -20 -1 -20 -11 0 -34 4 -52 9 -32 9 -46 -1 -17 -13 8 -3 15 -9
15 -14 0 -10 -49 -7 -145 6 -63 9 -78 4 -142 -52 -23 -20 -31 -56 -13 -56 6 0
10 -5 10 -11 0 -8 -4 -8 -15 1 -12 10 -17 5 -30 -25 -8 -21 -15 -44 -15 -52 0
-7 -8 -30 -19 -51 -10 -20 -21 -50 -25 -67 -4 -16 -13 -36 -19 -44 -18 -22
-16 -83 5 -124 10 -21 17 -41 14 -45 -3 -5 2 -32 11 -62 14 -49 17 -52 29 -35
11 14 17 16 26 7 9 -9 8 -21 -2 -52 -15 -47 -9 -57 24 -42 23 10 25 9 31 -29
4 -21 11 -41 16 -45 5 -3 9 -12 9 -21 0 -9 7 -25 17 -35 15 -17 14 -18 -15
-18 -27 0 -32 -4 -32 -25 0 -14 2 -25 4 -25 2 0 20 -7 41 -16 l38 -15 -6 37
c-4 23 -2 43 5 52 9 10 7 46 -7 149 -21 149 -17 170 29 165 23 -2 26 1 26 28
0 28 -3 30 -27 28 -24 -3 -28 1 -31 26 -4 34 17 116 29 116 5 0 23 25 40 56
29 51 39 59 107 90 60 27 87 34 141 34 36 1 113 5 171 10 91 7 111 6 153 -10
37 -14 55 -16 75 -9 33 13 38 3 46 -80 4 -36 9 -87 12 -113 8 -63 -4 -67 -105
-38 -46 14 -88 20 -104 16 -35 -9 -87 -54 -87 -77 0 -10 -9 -23 -20 -29 -19
-10 -19 -13 -5 -33 8 -12 15 -29 15 -39 0 -9 5 -20 11 -23 7 -5 9 8 5 41 -3
27 -4 44 -1 38 3 -5 24 -9 48 -8 30 2 47 -3 60 -17 22 -24 30 -24 52 1 24 27
35 25 35 -5 0 -28 16 -39 49 -33 18 3 19 6 8 28 -8 16 -30 30 -70 43 -56 19
-72 39 -41 51 27 10 80 7 115 -8 32 -13 33 -15 34 -81 1 -44 7 -70 15 -75 14
-9 13 -24 -17 -217 -7 -46 14 -43 33 5 9 20 26 48 39 62 40 42 57 98 59 190 2
47 8 94 14 106 6 11 20 60 32 107 23 92 21 146 -6 198 -17 33 -76 62 -131 63
l-43 1 0 50 c-1 72 -48 125 -149 165 -76 31 -101 36 -101 21z m-177 -88 c-7
-2 -21 -2 -30 0 -10 3 -4 5 12 5 17 0 24 -2 18 -5z m-56 -9 c-3 -3 -12 -4 -19
-1 -8 3 -5 6 6 6 11 1 17 -2 13 -5z m-299 -546 c-3 -7 -11 -13 -18 -13 -7 0
-15 6 -17 13 -3 7 4 12 17 12 13 0 20 -5 18 -12z"/>
<path d="M2070 2499 c0 -5 5 -7 10 -4 6 3 10 8 10 11 0 2 -4 4 -10 4 -5 0 -10
-5 -10 -11z"/>
<path d="M1290 2410 c19 -13 30 -13 30 0 0 6 -10 10 -22 10 -19 0 -20 -2 -8
-10z"/>
<path d="M2325 2410 c-3 -5 -2 -10 4 -10 5 0 13 5 16 10 3 6 2 10 -4 10 -5 0
-13 -4 -16 -10z"/>
<path d="M1249 1955 c-97 -26 -85 -44 29 -44 41 0 76 -2 79 -5 9 -9 -18 -37
-29 -30 -13 8 -107 -18 -119 -33 -6 -6 -8 -17 -4 -23 7 -12 46 -3 56 12 4 6
18 4 37 -6 28 -15 31 -14 44 6 11 17 25 21 72 23 l58 1 -7 -44 c-8 -54 9 -50
25 6 8 30 7 39 -6 49 -9 6 -13 16 -10 21 10 17 -5 41 -39 62 -38 23 -113 26
-186 5z m199 -70 c12 -11 -5 -10 -38 2 l-35 14 34 -6 c19 -3 37 -7 39 -10z"/>
<path d="M324 1886 c-8 -35 1 -44 16 -16 8 15 9 25 1 33 -7 7 -12 2 -17 -17z"/>
<path d="M408 1863 c7 -3 16 -2 19 1 4 3 -2 6 -13 5 -11 0 -14 -3 -6 -6z"/>
<path d="M630 1695 c7 -8 20 -15 28 -15 13 0 12 3 -4 15 -25 19 -40 19 -24 0z"/>
<path d="M120 1580 c-12 -8 -11 -10 7 -10 12 0 25 5 28 10 8 13 -15 13 -35 0z"/>
<path d="M1420 1573 c0 -10 4 -25 10 -33 5 -9 5 -19 -2 -27 -8 -10 -5 -20 12
-38 l23 -25 -46 0 c-26 0 -47 5 -47 10 0 15 -44 30 -68 23 -52 -13 -24 -73 34
-73 18 0 43 4 56 9 29 11 172 -1 252 -22 53 -14 62 -14 83 0 13 8 23 21 23 28
0 7 3 20 6 28 7 19 -47 47 -91 47 -24 0 -35 6 -43 25 -6 14 -9 31 -6 39 8 22
-24 27 -58 10 -29 -15 -34 -15 -65 0 -45 21 -73 21 -73 -1z m138 -95 c20 -20
14 -28 -23 -28 -38 0 -38 0 -29 24 7 19 35 21 52 4z m99 -24 c-3 -3 -12 -4
-19 -1 -8 3 -5 6 6 6 11 1 17 -2 13 -5z"/>
<path d="M25 1470 c4 -6 11 -8 16 -5 14 9 11 15 -7 15 -8 0 -12 -5 -9 -10z"/>
<path d="M2270 1430 c0 -5 7 -10 15 -10 8 0 15 5 15 10 0 6 -7 10 -15 10 -8 0
-15 -4 -15 -10z"/>
<path d="M1751 1331 c-8 -6 -9 -11 -3 -15 6 -3 14 -1 17 5 9 14 2 20 -14 10z"/>
<path d="M1766 1294 c-5 -13 -9 -14 -21 -4 -13 10 -15 9 -15 -11 0 -26 -40
-76 -82 -102 -22 -14 -54 -17 -178 -17 -115 0 -150 -3 -150 -13 0 -7 24 -36
53 -65 62 -61 86 -65 162 -27 28 13 55 25 61 25 35 1 152 126 177 190 8 22 12
40 7 40 -4 0 -11 -7 -14 -16z"/>
<path d="M90 1200 c0 -5 7 -10 15 -10 8 0 15 5 15 10 0 6 -7 10 -15 10 -8 0
-15 -4 -15 -10z"/>
<path d="M1093 1145 c-18 -8 -33 -20 -33 -27 0 -18 56 -85 65 -77 3 4 5 32 3
62 l-3 55 -32 -13z"/>
<path d="M1786 1112 c-12 -21 -9 -172 4 -172 5 0 24 21 40 48 40 62 37 101 -7
119 -18 7 -34 9 -37 5z"/>
<path d="M770 1081 c0 -6 5 -13 10 -16 6 -3 10 1 10 9 0 9 -4 16 -10 16 -5 0
-10 -4 -10 -9z"/>
<path d="M1450 956 c0 -2 7 -6 15 -10 8 -3 15 -1 15 4 0 6 -7 10 -15 10 -8 0
-15 -2 -15 -4z"/>
<path d="M735 940 c-3 -5 -1 -10 4 -10 6 0 11 5 11 10 0 6 -2 10 -4 10 -3 0
-8 -4 -11 -10z"/>
<path d="M437 899 c7 -7 15 -10 18 -7 3 3 -2 9 -12 12 -14 6 -15 5 -6 -5z"/>
<path d="M360 880 c0 -5 5 -10 10 -10 6 0 10 5 10 10 0 6 -4 10 -10 10 -5 0
-10 -4 -10 -10z"/>
<path d="M1710 855 c-6 -8 -10 -19 -8 -26 2 -6 9 0 16 15 13 29 10 33 -8 11z"/>
<path d="M1740 791 c-7 -14 -6 -35 4 -73 11 -46 17 -54 45 -64 18 -6 36 -16
40 -23 11 -17 121 -28 121 -11 0 15 -175 190 -189 190 -6 0 -15 -9 -21 -19z"/>
<path d="M1273 709 c-24 -32 -39 -59 -35 -59 4 0 12 4 18 10 5 5 36 12 68 15
32 3 67 10 77 16 22 11 26 39 6 39 -8 0 -22 9 -32 20 -31 34 -56 24 -102 -41z"/>
<path d="M1495 732 c-1 -2 0 -12 2 -23 7 -27 45 -21 49 7 3 18 -1 22 -22 20
-14 0 -27 -2 -29 -4z"/>
</g>
</svg>
